<?xml version="1.0" encoding="UTF-8"?> <svg xmlns="http://www.w3.org/2000/svg" width="241" height="46" viewBox="0 0 241 46" fill="none"><path d="M24.2589 0H20.2852H14.9748L0 25.1287H9.28408L20.2852 6.66987V20.5356H29.5692V0H24.2589Z" fill="#B6FAD1"></path><path d="M29.5742 20.5358L18.5731 38.9969V25.1288H9.28906V45.6668H14.5972H18.5731H23.8835L38.8583 20.5358H29.5742Z" fill="#B6FAD1"></path><path d="M47.971 33.281L55.7567 11.7206H59.6211L67.4068 33.281H63.424L61.6842 28.2962H53.6321L51.8923 33.281H47.9688H47.971ZM54.7548 25.1104H60.5957L58.1182 18.1491C57.9405 17.5889 57.7356 16.9399 57.6764 16.4981C57.5876 16.9103 57.4122 17.5593 57.205 18.1491L54.757 25.1104H54.7548Z" fill="#B6FAD1"></path><path d="M69.6562 33.2809V11.3356H73.2246V33.2809H69.6562Z" fill="#B6FAD1"></path><path d="M78.3556 33.2807V21.7195H75.5547V18.7113H78.3556V14.1683H81.9536V18.7113H84.7864V21.7195H81.9536V33.2807H78.3556Z" fill="#B6FAD1"></path><path d="M86.0234 25.9939C86.0234 21.4214 89.002 18.2675 93.2786 18.2675C97.5551 18.2675 100.418 21.1868 100.418 25.7298V26.8206L89.446 26.8502C89.7102 29.4166 91.0674 30.7145 93.4562 30.7145C95.4328 30.7145 96.7308 29.9471 97.1429 28.5603H100.477C99.8573 31.7461 97.2021 33.6635 93.397 33.6635C89.0612 33.6635 86.0234 30.5073 86.0234 25.9939ZM89.5326 24.5479H96.8469C96.8469 22.5417 95.4601 21.2141 93.3082 21.2141C91.1562 21.2141 89.8878 22.3641 89.5326 24.5479Z" fill="#B6FAD1"></path><path d="M112.448 21.984H111.12C108.524 21.984 106.903 23.3708 106.903 26.2013V33.2811H103.305V18.739H106.695L106.903 20.8636C107.522 19.4176 108.909 18.4453 110.856 18.4453C111.357 18.4453 111.858 18.5045 112.448 18.6525V21.9863V21.984Z" fill="#B6FAD1"></path><path d="M117.758 33.2811V12.1625H130.383V14.1095H119.882V21.7198H129.41V23.6372H119.882V31.3341H130.412V33.2811H117.76H117.758Z" fill="#B6FAD1"></path><path d="M134.192 33.281V19.0053H135.961L136.255 21.4829C137.2 19.6543 139.088 18.6227 141.151 18.6227C145.075 18.6227 146.696 20.9523 146.696 24.5503V33.281H144.66V24.992C144.66 21.6582 143.157 20.4786 140.796 20.4786C137.877 20.4786 136.223 22.6033 136.223 25.8186V33.281H134.188H134.192Z" fill="#B6FAD1"></path><path d="M156.404 18.6227C158.881 18.6227 160.769 19.7727 161.684 21.8677L161.892 19.0076H163.661V32.8415C163.661 37.0884 160.947 39.862 156.759 39.862C153.102 39.862 150.535 37.7966 149.975 34.3467H152.011C152.453 36.6467 154.222 38.0039 156.788 38.0039C159.708 38.0039 161.655 36.0273 161.655 33.0487V29.6557C160.682 31.6619 158.706 32.8415 156.258 32.8415C152.189 32.8415 149.711 29.6261 149.711 25.7344C149.711 21.8427 152.218 18.6273 156.406 18.6273L156.404 18.6227ZM156.552 31.0106C159.649 31.0106 161.477 28.7699 161.477 25.7025C161.477 22.6351 159.708 20.424 156.581 20.424C153.455 20.424 151.744 22.8128 151.744 25.7025C151.744 28.5923 153.543 31.0106 156.552 31.0106Z" fill="#B6FAD1"></path><path d="M167.312 13.5787C167.312 12.7521 167.991 12.0462 168.818 12.0462C169.644 12.0462 170.353 12.7544 170.353 13.5787C170.353 14.4031 169.644 15.084 168.818 15.084C167.991 15.084 167.312 14.4054 167.312 13.5787ZM167.813 19.0053H169.849V33.2809H167.813V19.0053Z" fill="#B6FAD1"></path><path d="M174.012 33.281V19.0053H175.782L176.075 21.4829C177.021 19.6543 178.908 18.6227 180.971 18.6227C184.895 18.6227 186.516 20.9523 186.516 24.5503V33.281H184.481V24.992C184.481 21.6582 182.978 20.4786 180.616 20.4786C177.697 20.4786 176.044 22.6033 176.044 25.8186V33.281H174.008H174.012Z" fill="#B6FAD1"></path><path d="M189.502 26.142C189.502 21.6879 192.276 18.6205 196.345 18.6205C200.415 18.6205 202.833 21.3622 202.833 25.4042V26.4062H191.477C191.625 29.8857 193.453 31.8919 196.521 31.8919C198.85 31.8919 200.355 30.89 200.886 29.0022H202.833C202.066 32.0103 199.854 33.634 196.491 33.634C192.303 33.634 189.5 30.6258 189.5 26.142H189.502ZM191.538 24.9328H200.799C200.799 22.1888 199.03 20.3603 196.345 20.3603C193.66 20.3603 191.891 22.1296 191.538 24.9328Z" fill="#B6FAD1"></path><path d="M204.987 26.142C204.987 21.6879 207.76 18.6205 211.83 18.6205C215.899 18.6205 218.317 21.3622 218.317 25.4042V26.4062H206.961C207.109 29.8857 208.938 31.8919 212.005 31.8919C214.334 31.8919 215.84 30.89 216.37 29.0022H218.317C217.55 32.0103 215.339 33.634 211.975 33.634C207.788 33.634 204.984 30.6258 204.984 26.142H204.987ZM207.022 24.9328H216.284C216.284 22.1888 214.514 20.3603 211.83 20.3603C209.145 20.3603 207.375 22.1296 207.022 24.9328Z" fill="#B6FAD1"></path><path d="M228.931 20.6562H227.811C225.185 20.6562 223.505 22.4255 223.505 25.1399V33.2809H221.469V19.0052H223.386L223.534 21.2163C224.094 19.6815 225.6 18.6796 227.603 18.6796C228.045 18.6796 228.43 18.7092 228.931 18.8276V20.6562Z" fill="#B6FAD1"></path><path d="M232.299 29.2686C232.299 30.9195 233.537 31.9534 235.544 31.9534C237.755 31.9534 239.053 31.0083 239.053 29.4758C239.053 28.2962 238.463 27.6176 236.782 27.2055L234.334 26.5861C231.857 25.9667 230.648 24.6687 230.648 22.7217C230.648 20.2145 232.743 18.6227 235.81 18.6227C238.877 18.6227 240.765 20.2737 240.854 22.9289H238.877C238.818 21.2779 237.668 20.3033 235.751 20.3033C233.833 20.3033 232.624 21.1595 232.624 22.6921C232.624 23.7828 233.392 24.5503 234.954 24.9351L237.402 25.5545C239.879 26.1739 241 27.3239 241 29.3893C241 31.9557 238.818 33.6362 235.573 33.6362C232.328 33.6362 230.352 31.9261 230.352 29.2709H232.299V29.2686Z" fill="#B6FAD1"></path></svg> 