<?xml version="1.0" encoding="UTF-8"?> <svg xmlns="http://www.w3.org/2000/svg" width="182" height="36" viewBox="0 0 182 36" fill="none"><path d="M18.9535 0.895996H15.9819H12.0108L0.8125 19.6875H7.75521L15.9819 5.88378V16.2527H22.9246V0.895996H18.9535Z" fill="#5B5DD3"></path><path d="M22.9272 16.2529L14.7005 30.0583V19.6877H7.75781V35.0461H11.7273H14.7005H18.6717L29.8699 16.2529H22.9272Z" fill="#5B5DD3"></path><path d="M36.6814 25.7842L42.5036 9.66113H45.3934L51.2156 25.7842H48.2373L46.9362 22.0565H40.9148L39.6138 25.7842H36.6797H36.6814ZM41.7543 19.6742H46.1223L44.2695 14.4684C44.1367 14.0495 43.9834 13.5642 43.9391 13.2338C43.8727 13.542 43.7416 14.0274 43.5866 14.4684L41.756 19.6742H41.7543Z" fill="#5B5DD3"></path><path d="M52.8984 25.7839V9.37305H55.5669V25.7839H52.8984Z" fill="#5B5DD3"></path><path d="M59.4071 25.7841V17.1385H57.3125V14.889H59.4071V11.4917H62.0976V14.889H64.216V17.1385H62.0976V25.7841H59.4071Z" fill="#5B5DD3"></path><path d="M65.1328 20.3346C65.1328 16.9152 67.3602 14.5566 70.5582 14.5566C73.7563 14.5566 75.8968 16.7398 75.8968 20.137V20.9527L67.6923 20.9749C67.8898 22.894 68.9047 23.8647 70.6911 23.8647C72.1692 23.8647 73.1398 23.2908 73.4481 22.2537H75.9411C75.4779 24.6361 73.4923 26.0699 70.6468 26.0699C67.4045 26.0699 65.1328 23.7097 65.1328 20.3346ZM67.757 19.2532H73.2267C73.2267 17.753 72.1896 16.7602 70.5804 16.7602C68.9711 16.7602 68.0226 17.6202 67.757 19.2532Z" fill="#5B5DD3"></path><path d="M84.8996 17.3362H83.9068C81.9655 17.3362 80.7531 18.3733 80.7531 20.49V25.7843H78.0625V14.9096H80.5981L80.7531 16.4984C81.2163 15.4171 82.2533 14.6899 83.7093 14.6899C84.0839 14.6899 84.4586 14.7342 84.8996 14.8449V17.3379V17.3362Z" fill="#5B5DD3"></path><path d="M88.8672 25.7839V9.99121H98.3081V11.4472H90.456V17.1383H97.5809V18.5721H90.456V24.3279H98.3302V25.7839H88.8689H88.8672Z" fill="#5B5DD3"></path><path d="M101.16 25.7838V15.1084H102.483L102.702 16.9611C103.409 15.5937 104.821 14.8223 106.364 14.8223C109.298 14.8223 110.51 16.5643 110.51 19.2549V25.7838H108.988V19.5853C108.988 17.0922 107.864 16.2101 106.098 16.2101C103.915 16.2101 102.679 17.7989 102.679 20.2034V25.7838H101.156H101.16Z" fill="#5B5DD3"></path><path d="M117.77 14.8223C119.623 14.8223 121.035 15.6822 121.719 17.2489L121.874 15.1101H123.198V25.4552C123.198 28.6311 121.168 30.7052 118.036 30.7052C115.301 30.7052 113.382 29.1607 112.963 26.5808H114.486C114.816 28.3007 116.139 29.3156 118.058 29.3156C120.241 29.3156 121.697 27.8375 121.697 25.6101V23.0728C120.97 24.5731 119.492 25.4552 117.661 25.4552C114.618 25.4552 112.766 23.0507 112.766 20.1404C112.766 17.2302 114.641 14.8257 117.772 14.8257L117.77 14.8223ZM117.881 24.086C120.197 24.086 121.564 22.4104 121.564 20.1166C121.564 17.8228 120.241 16.1693 117.903 16.1693C115.565 16.1693 114.286 17.9556 114.286 20.1166C114.286 22.2776 115.632 24.086 117.881 24.086Z" fill="#5B5DD3"></path><path d="M125.922 11.0503C125.922 10.4322 126.429 9.9043 127.047 9.9043C127.666 9.9043 128.195 10.4339 128.195 11.0503C128.195 11.6668 127.666 12.176 127.047 12.176C126.429 12.176 125.922 11.6685 125.922 11.0503ZM126.297 15.1084H127.819V25.7838H126.297V15.1084Z" fill="#5B5DD3"></path><path d="M130.933 25.7838V15.1084H132.256L132.476 16.9611C133.183 15.5937 134.594 14.8223 136.137 14.8223C139.071 14.8223 140.284 16.5643 140.284 19.2549V25.7838H138.761V19.5853C138.761 17.0922 137.637 16.2101 135.871 16.2101C133.688 16.2101 132.452 17.7989 132.452 20.2034V25.7838H130.93H130.933Z" fill="#5B5DD3"></path><path d="M142.517 20.445C142.517 17.1141 144.591 14.8203 147.635 14.8203C150.678 14.8203 152.486 16.8706 152.486 19.8932V20.6425H143.994C144.104 23.2445 145.472 24.7448 147.766 24.7448C149.508 24.7448 150.633 23.9955 151.03 22.5838H152.486C151.912 24.8334 150.259 26.0475 147.744 26.0475C144.612 26.0475 142.516 23.798 142.516 20.445H142.517ZM144.04 19.5407H150.965C150.965 17.4888 149.642 16.1213 147.635 16.1213C145.627 16.1213 144.304 17.4445 144.04 19.5407Z" fill="#5B5DD3"></path><path d="M154.095 20.445C154.095 17.1141 156.17 14.8203 159.213 14.8203C162.256 14.8203 164.064 16.8706 164.064 19.8932V20.6425H155.572C155.683 23.2445 157.05 24.7448 159.344 24.7448C161.086 24.7448 162.211 23.9955 162.608 22.5838H164.064C163.49 24.8334 161.837 26.0475 159.322 26.0475C156.19 26.0475 154.094 23.798 154.094 20.445H154.095ZM155.618 19.5407H162.544C162.544 17.4888 161.22 16.1213 159.213 16.1213C157.205 16.1213 155.882 17.4445 155.618 19.5407Z" fill="#5B5DD3"></path><path d="M172.002 16.3429H171.164C169.201 16.3429 167.944 17.666 167.944 19.6959V25.7837H166.422V15.1083H167.856L167.966 16.7618C168.385 15.614 169.511 14.8647 171.009 14.8647C171.34 14.8647 171.628 14.8869 172.002 14.9754V16.3429Z" fill="#5B5DD3"></path><path d="M174.526 22.7833C174.526 24.0179 175.453 24.791 176.953 24.791C178.606 24.791 179.577 24.0843 179.577 22.9383C179.577 22.0562 179.136 21.5487 177.879 21.2405L176.049 20.7773C174.196 20.3141 173.292 19.3435 173.292 17.8875C173.292 16.0126 174.858 14.8223 177.152 14.8223C179.446 14.8223 180.858 16.0569 180.924 18.0424H179.446C179.402 16.8078 178.542 16.079 177.108 16.079C175.674 16.079 174.77 16.7193 174.77 17.8653C174.77 18.681 175.344 19.2549 176.512 19.5427L178.342 20.0059C180.195 20.4691 181.033 21.329 181.033 22.8736C181.033 24.7927 179.402 26.0495 176.975 26.0495C174.548 26.0495 173.07 24.7706 173.07 22.785H174.526V22.7833Z" fill="#5B5DD3"></path></svg> 