<?xml version="1.0" encoding="UTF-8"?> <svg xmlns="http://www.w3.org/2000/svg" id="Layer_1" data-name="Layer 1" viewBox="0 0 585 244"><defs><style> .cls-1 { fill: #fff; } .cls-2 { fill: #5b5dd3; } </style></defs><rect class="cls-1" width="585" height="244"></rect><g><path class="cls-2" d="M227.99,86.49H127.93v71.02h100.06V86.49Z"></path><path class="cls-2" d="M248.94,137.37c1.62,0,3.24,0,4.59,.9,1.62,.99,2.43,2.52,2.43,4.41,0,2.25-1.53,3.78-3.6,4.32v.09c2.52,.54,4.23,2.43,4.23,5.03,0,1.8-1.08,3.33-2.43,4.32-1.44,1.08-3.42,1.08-5.12,1.08h-8.99v-20.14h8.9Zm-4.32,8h3.24c.81,0,1.8,.09,2.52-.45,.54-.45,.81-1.17,.81-1.8,0-.72-.36-1.44-.99-1.8-.72-.36-1.89-.27-2.7-.27h-2.88v4.32Zm0,8.36h3.24c.81,0,1.98,.09,2.7-.45,.72-.45,1.08-1.26,1.08-2.07,0-.72-.45-1.53-1.17-1.98-.72-.36-1.62-.36-2.34-.36h-3.51v4.85Z"></path><path class="cls-2" d="M265.39,141.24v4.05h7.64v3.78h-7.64v4.5h9.71v3.96h-14.38v-20.14h14.38v3.87s-9.71,0-9.71,0Z"></path><path class="cls-2" d="M284,157.51h-4.67v-20.14h8.45c1.8,0,3.6,0,5.12,.99,1.62,1.08,2.52,3.06,2.52,5.03,0,2.25-1.35,4.41-3.51,5.21l3.69,8.9h-5.21l-3.06-7.91h-3.42v7.91h.09Zm0-11.42h2.61c.99,0,2.07,.09,2.88-.45,.72-.45,1.17-1.44,1.17-2.25s-.45-1.62-1.17-2.07c-.81-.54-2.16-.36-3.06-.36h-2.43v5.12Z"></path><path class="cls-2" d="M304.68,146.81l6.29-9.44h4.5l-4.85,7.19,6.11,12.95h-5.21l-3.96-8.72-2.88,4.05v4.67h-4.59v-20.14h4.59v9.44Z"></path><path class="cls-2" d="M325,141.24v4.05h7.64v3.78h-7.64v4.5h9.71v3.96h-14.38v-20.14h14.38v3.87s-9.71,0-9.71,0Z"></path><path class="cls-2" d="M351.43,153.47v4.05h-12.77v-20.14h4.67v16.18h8.09v-.09Z"></path><path class="cls-2" d="M359.61,141.24v4.05h7.64v3.78h-7.64v4.5h9.71v3.96h-14.38v-20.14h14.38v3.87s-9.71,0-9.71,0Z"></path><path class="cls-2" d="M382.81,148.97v8.54h-4.67v-8.45l-6.38-11.69h5.48l3.87,7.64,3.78-7.64h4.23l-6.29,11.6Z"></path><path class="cls-2" d="M415.44,153.47v4.05h-12.77v-20.14h4.67v16.18h8.09v-.09Z"></path><path class="cls-2" d="M436.66,157.51h-5.03l-1.26-4.14h-6.47l-1.26,4.14h-4.14l6.47-20.14h5.48l6.2,20.14Zm-7.37-7.82l-2.16-7.1-2.16,7.1h4.32Z"></path><path class="cls-2" d="M449.43,137.37c1.62,0,3.24,0,4.59,.9,1.62,.99,2.43,2.52,2.43,4.41,0,2.25-1.53,3.78-3.6,4.32v.09c2.52,.54,4.23,2.43,4.23,5.03,0,1.8-1.08,3.33-2.43,4.32-1.44,1.08-3.42,1.08-5.12,1.08h-8.99v-20.14h8.9Zm-4.32,8h3.24c.81,0,1.8,.09,2.52-.45,.54-.45,.81-1.17,.81-1.8,0-.72-.36-1.44-.99-1.8-.72-.36-1.89-.27-2.7-.27h-2.88v4.32h0Zm0,8.36h3.24c.81,0,1.98,.09,2.7-.45,.72-.45,1.08-1.26,1.08-2.07,0-.72-.45-1.53-1.17-1.98-.72-.36-1.62-.36-2.34-.36h-3.51v4.85h0Z"></path><path class="cls-1" d="M214.78,157.51h-1.89v-33.71l-5.03-6.83-5.03,6.83v33.71h-1.89v-34.34l6.92-9.44,6.92,9.44v34.34Z"></path><path class="cls-1" d="M141.06,131.98h3.42v-1.26h-6.47v4.67h3.15v-3.42h-.09Z"></path><path class="cls-1" d="M149.96,131.98h3.42v-1.26h-6.56v4.67h3.15v-3.42Z"></path><path class="cls-1" d="M158.95,131.98h3.42v-1.26h-6.56v4.67h3.15v-3.42Z"></path><path class="cls-1" d="M167.85,131.98h3.42v-1.26h-6.47v4.67h3.15v-3.42h-.09Z"></path><path class="cls-1" d="M176.84,131.98h3.42v-1.26h-6.47v4.67h3.15v-3.42h-.09Z"></path><path class="cls-1" d="M185.83,131.98h3.42v-1.26h-6.47v4.67h3.15v-3.42h-.09Z"></path><path class="cls-1" d="M162.63,103.39l-.81-.45-.9,.54-7.1,3.87v2.61l7.91-4.32,7.91,4.32v-2.61l-7.01-3.96Z"></path><path class="cls-1" d="M189.96,123.35c-7.82-7.55-18.07-11.69-29.04-11.69-8.54,0-16.81,2.61-23.73,7.37l-.99,.72v2.88l2.34-1.62c6.65-4.59,14.38-7.01,22.48-7.01,10.43,0,20.32,4.05,27.69,11.33,.18,.18,.54,.36,.81,.36h4.14v31.83h2.34v-34.16h-6.02Z"></path><path class="cls-1" d="M207.23,127.39h-2.07v7.91h2.07v-7.91Z"></path><path class="cls-1" d="M210.82,127.39h-2.07v7.91h2.07v-7.91Z"></path></g></svg> 