<?xml version="1.0" encoding="UTF-8"?> <svg xmlns="http://www.w3.org/2000/svg" id="Layer_1" data-name="Layer 1" viewBox="0 0 585 244"><defs><style> .cls-1 { fill: #fff; } .cls-2 { fill: #9695d7; } .cls-3 { fill: #5c5ada; } </style></defs><rect class="cls-1" width="585" height="244"></rect><g><g><g><path class="cls-2" d="M241.23,127.59l-7.1-7.43c-1.49-1.49-2.64-2.81-2.64-4.79,0-2.31,1.65-3.63,3.96-3.63s3.8,.83,5.45,2.15v-3.14c-1.49-.99-3.3-1.65-5.45-1.65-3.96,0-6.93,2.48-6.93,6.27,0,1.98,.83,3.47,1.98,4.95l9.08,9.9c-1.32,1.49-3.14,2.31-5.45,2.31-3.14,0-5.28-2.15-5.28-5.12,0-1.65,.83-3.14,1.98-4.13l-1.65-2.15c-1.98,1.49-3.3,3.63-3.3,6.11,0,4.46,3.3,7.76,8.09,7.76,2.97,0,5.45-1.16,7.26-2.97l2.48,2.64h4.13l-6.6-7.1Z"></path><path class="cls-2" d="M243.87,128.09c.83-1.82,1.32-3.96,1.32-6.11h-2.81c0,1.32-.33,2.64-.66,3.8l2.15,2.31Z"></path></g><g><g><path class="cls-3" d="M255.91,57.63v43.89h-5.94l-17.33-31.85,.33,31.85h-6.44V57.63h5.94l17.33,32.18-.33-32.18h6.44Z"></path><path class="cls-3" d="M264.33,88.32v-17.66c0-8.58,7.1-14.03,15.84-14.03s15.84,5.28,15.84,14.03v17.66c0,8.75-7.1,14.03-15.84,14.03-8.91,0-15.84-5.28-15.84-14.03Zm25.25-.83v-16.01c0-5.78-4.13-8.91-9.41-8.91s-9.41,3.14-9.41,8.91v16.01c0,5.94,4.29,8.91,9.41,8.91,5.28,0,9.41-2.97,9.41-8.91Z"></path><path class="cls-3" d="M329.83,95.58v5.94h-25.41V57.63h6.44v37.95h18.98Z"></path><path class="cls-3" d="M361.02,95.58v5.78h-25.41V57.63h6.44v37.95h18.98Z"></path></g><g><path class="cls-3" d="M285.61,121.98h-11.55v37.95h-6.44v-37.95h-11.55v-5.94h29.7v5.94h-.17Z"></path><path class="cls-3" d="M318.94,159.93h-7.1l-3.47-11.88h-13.86l-3.3,11.88h-7.1l14.03-43.89h6.77l14.03,43.89Zm-12.05-17.16l-5.45-18.98-5.45,18.98h10.89Z"></path><path class="cls-3" d="M361.02,116.04v43.89h-6.27l.33-29.37-10.4,21.12h-3.63l-10.23-21.12,.5,29.37h-6.44v-43.89h5.28l12.87,27.23,12.87-27.23h5.12Z"></path></g></g></g><g><path class="cls-3" d="M236.28,186.17l-1.65-4.13h-5.61l-1.65,4.13h-1.65l5.45-13.7h1.65l5.45,13.7h-1.98Zm-4.46-11.55l-2.31,5.94h4.62l-2.31-5.94Z"></path><path class="cls-3" d="M242.38,186.17v-13.7h5.12c1.32,0,2.48,.33,3.3,.99s1.32,1.65,1.32,2.97c0,1.16-.33,1.98-.99,2.64s-1.49,.99-2.64,1.16l4.13,5.94h-1.98l-3.96-5.78h-2.48v5.78s-1.82,0-1.82,0Zm1.82-12.05v4.95h3.3c.83,0,1.65-.16,2.15-.66s.83-.99,.83-1.82-.33-1.32-.83-1.82-1.16-.66-2.15-.66h-3.3Z"></path><path class="cls-3" d="M256.08,179.4c0-2.15,.66-3.8,1.82-5.12,1.32-1.32,2.81-1.98,4.62-1.98,.83,0,1.49,.16,2.15,.33s1.16,.5,1.65,.83v1.82c-.5-.5-1.16-.83-1.65-1.16-.66-.16-1.32-.33-1.98-.33-1.32,0-2.48,.5-3.47,1.49-.83,.99-1.32,2.31-1.32,3.96s.5,2.97,1.32,3.96,1.98,1.49,3.47,1.49c.66,0,1.32-.16,1.98-.33s1.16-.66,1.65-1.16v1.82c-.5,.33-.99,.66-1.65,.83s-1.32,.33-2.15,.33c-1.82,0-3.3-.66-4.62-1.98-1.16-.99-1.82-2.64-1.82-4.79Z"></path><path class="cls-3" d="M280.83,172.47h1.82v13.7h-1.82v-6.27h-7.76v6.27h-1.82v-13.7h1.82v5.94h7.76v-5.94Z"></path><path class="cls-3" d="M289.9,172.47v13.86h-1.82v-13.7h1.82v-.17Z"></path><path class="cls-3" d="M294.52,174.12v-1.65h11.39v1.65h-4.79v12.21h-1.82v-12.21h-4.79Z"></path><path class="cls-3" d="M310.53,172.47h8.75v1.65h-7.1v4.29h6.44v1.65h-6.44v4.79h7.1v1.65h-8.75v-14.03Z"></path><path class="cls-3" d="M323.4,179.4c0-2.15,.66-3.8,1.82-5.12,1.32-1.32,2.81-1.98,4.62-1.98,.83,0,1.49,.16,2.15,.33s1.16,.5,1.65,.83v1.82c-.5-.5-1.16-.83-1.65-1.16-.66-.16-1.32-.33-1.98-.33-1.32,0-2.48,.5-3.47,1.49-.83,.99-1.32,2.31-1.32,3.96s.5,2.97,1.32,3.96,1.98,1.49,3.47,1.49c.66,0,1.32-.16,1.98-.33s1.16-.66,1.65-1.16v1.82c-.5,.33-.99,.66-1.65,.83s-1.32,.33-2.15,.33c-1.82,0-3.3-.66-4.62-1.98-1.16-.99-1.82-2.64-1.82-4.79Z"></path><path class="cls-3" d="M337.59,174.12v-1.65h11.39v1.65h-4.79v12.21h-1.82v-12.21h-4.79Z"></path><path class="cls-3" d="M352.77,185.18v-1.98c.66,.5,1.32,.99,1.98,1.16s1.49,.33,2.31,.33,1.65-.16,2.15-.5,.83-.99,.83-1.65-.16-.99-.5-1.32-.99-.66-1.65-.99l-1.98-.83c-.83-.33-1.49-.83-2.15-1.32s-.99-1.32-.99-2.48,.5-2.15,1.32-2.64c.83-.66,1.98-.99,3.14-.99,.83,0,1.49,.16,2.15,.33s1.32,.5,1.82,.83v1.82c-.5-.5-1.16-.83-1.82-.99s-1.32-.33-2.15-.33-1.49,.16-1.98,.5c-.5,.33-.83,.83-.83,1.49s.16,.99,.5,1.32,.83,.66,1.49,.83l2.15,.83c.99,.33,1.82,.83,2.31,1.49s.66,1.32,.66,2.31c0,1.16-.5,2.15-1.32,2.81s-1.98,.99-3.3,.99c-.99,0-1.82-.16-2.48-.33-.66,0-1.32-.33-1.65-.66Z"></path></g></g></svg> 